<?xml version="1.0" ?><!DOCTYPE svg  PUBLIC '-//W3C//DTD SVG 1.1//EN'  'http://www.w3.org/Graphics/SVG/1.1/DTD/svg11.dtd'><svg height="512px" style="enable-background:new 0 0 512 512;" version="1.1" viewBox="0 0 512 512" width="512px" xml:space="preserve" xmlns="http://www.w3.org/2000/svg" xmlns:xlink="http://www.w3.org/1999/xlink"><g id="_x32_14-megaport"><g><path d="M256,26.001c-127.057,0-230,102.943-230,229.999c0,127.057,102.943,229.999,230,229.999    c127.056,0,229.999-102.942,229.999-229.999C485.999,128.944,383.057,26.001,256,26.001z" style="fill:#ED1C24;"/><path d="M335.295,274.178v-81.242l-55.184-55.182V67.643l-24.204-17.806l-24.206,17.806v70.111    l-55.182,55.182v81.519l-55.18,55.183v80.685l24.205,17.808l24.206-17.808v-60.745l31.069-30.976l30.974,30.976v60.745    L256,428.129l24.297-17.808v-60.745l30.975-30.976l30.978,30.976v60.745l24.111,17.808l24.208-17.808h0.093v-80.776    L335.295,274.178z M286.882,274.548L256,305.43l-31.069-31.066V212.97l30.976-30.978l30.975,30.978V274.548z" style="fill:#FFFFFF;"/></g></g><g id="Layer_1"/></svg>